# Blender 5.0.1
# www.blender.org
mtllib monitor.mtl
o Cube
v 1.990848 1.990848 -2.022793
v 1.990848 0.242792 -2.022793
v 1.694533 1.694533 -1.889703
v 1.694532 0.539108 -1.889703
v -1.170327 1.990848 -2.022793
v -1.170327 0.242792 -2.022793
v -0.874012 1.694533 -1.889703
v -0.874012 0.539108 -1.889703
v 2.022793 0.210848 -2.022793
v -1.202272 0.210848 -2.022793
v 2.022793 2.022793 -2.022793
v -1.202272 2.022793 -2.022793
v 1.990848 0.242792 -2.017052
v -1.170327 0.242792 -2.017052
v 1.990848 1.990848 -2.017052
v -1.170327 1.990848 -2.017052
v 1.990848 0.264587 -2.022793
v -1.170327 0.264587 -2.022793
v 1.990848 0.264587 -2.017052
v -1.170327 0.264587 -2.017052
v 2.022793 1.253471 -2.022793
v -0.874012 1.253471 -1.889703
v 1.694532 1.253471 -1.889703
v -1.202272 1.253471 -2.022793
v 1.990848 1.248653 -2.022793
v -1.170327 1.248653 -2.022793
v 1.990848 1.248653 -2.017052
v -1.170327 1.248653 -2.017052
v 2.022793 1.059289 -2.022793
v 1.694532 1.059289 -1.889703
v -1.202272 1.059289 -2.022793
v 1.990848 1.061318 -2.022793
v -1.170327 1.061318 -2.022793
v 1.990848 1.061318 -2.017052
v -1.170327 1.061318 -2.017052
v -0.874012 1.059289 -1.889703
v 0.285318 0.210848 -2.022793
v 0.285318 1.694533 -1.889703
v 0.285318 0.539108 -1.889703
v 0.285318 2.022793 -2.022793
v 0.287794 0.242792 -2.022793
v 0.287794 1.990848 -2.022793
v 0.287794 0.242792 -2.017052
v 0.287794 1.990848 -2.017052
v 0.287794 0.264587 -2.022793
v 0.287794 0.264587 -2.017052
v 0.287794 1.248653 -2.017052
v 0.285318 1.253471 -1.801266
v 0.285318 1.059289 -1.801266
v 0.287794 1.061318 -2.017052
v 0.542433 0.539108 -1.889703
v 0.542433 2.022793 -2.022793
v 0.539815 1.990848 -2.022793
v 0.539815 1.990848 -2.017052
v 0.539815 1.248653 -2.017052
v 0.539815 1.061318 -2.017052
v 0.542433 0.210848 -2.022793
v 0.542433 1.694533 -1.889703
v 0.539815 0.242792 -2.022793
v 0.539815 0.242792 -2.017052
v 0.539815 0.264587 -2.022793
v 0.539815 0.264587 -2.017052
v 0.870693 1.581731 -1.801266
v 0.870693 0.731029 -1.801266
v 0.542433 0.860841 -1.571301
v 0.285318 0.860841 -1.571301
v 0.285318 0.860841 -1.730315
v 0.285318 1.253471 -1.730315
v 0.542433 1.253471 -1.730315
v 0.542433 0.860841 -1.730315
v 0.542433 0.073524 -1.571301
v 0.285318 0.073524 -1.571301
v 0.285318 0.073524 -1.730315
v 0.542433 0.073524 -1.730315
v 0.542433 1.253471 -1.624569
v 0.542433 1.200203 -1.571301
v 0.542433 1.252815 -1.616236
v 0.542433 1.250864 -1.608108
v 0.542433 1.247665 -1.600386
v 0.542433 1.243298 -1.593259
v 0.542433 1.237869 -1.586903
v 0.542433 1.231513 -1.581474
v 0.542433 1.224386 -1.577107
v 0.542433 1.216663 -1.573908
v 0.542433 1.208536 -1.571957
v 0.285318 1.200203 -1.571301
v 0.285318 1.253471 -1.624569
v 0.285318 1.208536 -1.571957
v 0.285318 1.216663 -1.573908
v 0.285318 1.224386 -1.577107
v 0.285318 1.231513 -1.581474
v 0.285318 1.237869 -1.586903
v 0.285318 1.243298 -1.593259
v 0.285318 1.247665 -1.600386
v 0.285318 1.250864 -1.608108
v 0.285318 1.252815 -1.616236
v 0.542433 -0.246855 -1.571301
v 0.285318 -0.246855 -1.571301
v 0.285318 -0.246855 -1.730315
v 0.542433 -0.246855 -1.730315
v -1.202272 1.253471 -1.889703
v -1.202272 2.022793 -1.889703
v 2.022793 1.059289 -1.889703
v 2.022793 0.210848 -1.889703
v 0.285318 2.022793 -1.889703
v 0.542433 0.210848 -1.889703
v -1.202272 1.059289 -1.889703
v 2.022793 2.022793 -1.889703
v 2.022793 1.253471 -1.889703
v -1.202272 0.210848 -1.889703
v 0.542433 2.022793 -1.889703
v 0.285318 0.210848 -1.889703
v 0.542433 1.253471 -1.801266
v -0.042942 1.581731 -1.801266
v 0.542433 1.059289 -1.801266
v -0.042942 0.731029 -1.801266
vn -0.0000 1.0000 -0.0000
vn -0.1058 -0.0000 0.9944
vn -1.0000 -0.0000 -0.0000
vn -0.0000 -1.0000 -0.0000
vn 1.0000 -0.0000 -0.0000
vn -0.0000 -0.0000 -1.0000
vn -0.0000 -0.0000 1.0000
vn -0.0000 -0.4185 0.9082
vn -0.0000 0.6170 0.7870
vn 0.1067 -0.0000 0.9943
vn -0.0000 -0.3367 -0.9416
vn -0.0000 0.9969 0.0785
vn -0.0000 0.9724 0.2334
vn -0.0000 0.9239 0.3827
vn -0.0000 0.8526 0.5225
vn -0.0000 0.7604 0.6494
vn -0.0000 0.6494 0.7604
vn -0.0000 0.5225 0.8526
vn -0.0000 0.3827 0.9239
vn -0.0000 0.2334 0.9724
vn -0.0000 0.0785 0.9969
vt 0.875000 0.500000
vt 0.759685 0.750000
vt 0.759685 0.500000
vt 0.564145 0.910131
vt 0.579709 0.974554
vt 0.518854 0.974554
vt 0.625000 0.000000
vt 0.518854 0.250000
vt 0.518854 0.000000
vt 0.375000 0.500000
vt 0.260246 0.750000
vt 0.260246 0.500000
vt 0.625000 0.500000
vt 0.518854 0.750000
vt 0.518854 0.500000
vt 0.620592 0.497524
vt 0.620592 0.385043
vt 0.620592 0.385043
vt 0.379408 0.497524
vt 0.375000 0.385246
vt 0.379408 0.385043
vt 0.518189 0.497524
vt 0.379408 0.252476
vt 0.492062 0.250000
vt 0.492342 0.252476
vt 0.620592 0.252476
vt 0.625000 0.365315
vt 0.620592 0.365507
vt 0.518189 0.497524
vt 0.518189 0.385043
vt 0.492342 0.497524
vt 0.492342 0.497524
vt 0.518189 0.252476
vt 0.518189 0.252476
vt 0.379408 0.365507
vt 0.492342 0.252476
vt 0.492342 0.385043
vt 0.625000 0.250000
vt 0.492062 0.500000
vt 0.492062 0.750000
vt 0.492062 0.000000
vt 0.492062 0.974554
vt 0.446771 0.910131
vt 0.420291 0.974554
vt 0.420291 0.884685
vt 0.375000 0.250000
vt 0.375000 0.000000
vt 0.375000 0.750000
vt 0.420291 0.864754
vt 0.492342 0.365507
vt 0.518189 0.365507
vt 0.625000 0.385246
vt 0.375000 0.365315
vt 0.240315 0.500000
vt 0.125000 0.750000
vt 0.125000 0.500000
vt 0.579709 0.864754
vt 0.564145 0.839308
vt 0.739754 0.750000
vt 0.739754 0.500000
vt 0.625000 0.750000
vt 0.579709 0.775446
vt 0.518854 0.775446
vt 0.446771 0.839308
vt 0.492062 0.775446
vt 0.420291 0.775446
vt 0.240315 0.750000
vt 0.492062 0.884685
vt 0.518854 0.884685
vt 0.518854 0.864754
vt 0.518854 0.864754
vt 0.492062 0.864754
vt 0.492062 0.864754
vt 0.518839 0.864754
vt 0.518839 0.884685
vt 0.518795 0.864754
vt 0.518795 0.884685
vt 0.518722 0.864754
vt 0.518722 0.884685
vt 0.518623 0.864754
vt 0.518623 0.884685
vt 0.518499 0.864754
vt 0.518499 0.884685
vt 0.517356 0.864754
vt 0.517356 0.884685
vt 0.516869 0.864754
vt 0.516869 0.884685
vt 0.516343 0.864754
vt 0.516343 0.884685
vt 0.515788 0.864754
vt 0.515788 0.884685
vt 0.515219 0.864754
vt 0.515219 0.884685
vt 0.518854 1.000000
vt 0.625000 0.884685
vt 0.625000 1.000000
vt 0.375000 0.864754
vt 0.492062 1.000000
vt 0.375000 1.000000
vt 0.579709 0.884685
vt 0.375000 0.884685
vt 0.625000 0.864754
vt 0.875000 0.750000
s 0
usemtl Material
f 12/1/1 105/2/1 40/3/1
f 114/4/2 7/5/2 22/6/2
f 102/7/3 24/8/3 101/9/3
f 9/10/4 106/11/4 57/12/4
f 11/13/5 109/14/5 21/15/5
f 1/16/4 54/17/4 53/18/4
f 2/19/6 57/20/6 59/21/6
f 1/16/6 21/15/6 25/22/6
f 6/23/6 31/24/6 33/25/6
f 5/26/6 40/27/6 42/28/6
f 54/17/6 27/29/6 55/30/6
f 2/19/3 34/31/3 32/32/3
f 5/26/5 28/33/5 26/34/5
f 6/23/6 45/35/6 41/35/6
f 18/23/1 46/35/1 45/35/1
f 2/19/5 19/19/5 13/19/5
f 13/19/7 62/21/7 60/21/7
f 14/23/3 18/23/3 6/23/3
f 26/34/5 35/36/5 33/25/5
f 25/22/3 15/16/3 1/16/3
f 55/30/6 34/31/6 56/37/6
f 5/26/6 24/8/6 12/38/6
f 25/22/6 29/39/6 32/32/6
f 21/15/5 103/40/5 29/39/5
f 101/9/3 31/24/3 107/41/3
f 114/4/2 36/42/2 116/43/2
f 116/43/8 8/44/8 39/45/8
f 107/41/3 10/46/3 110/47/3
f 29/39/5 104/48/5 9/10/5
f 2/19/6 29/39/6 9/10/6
f 56/37/6 13/19/6 60/21/6
f 33/25/5 14/23/5 6/23/5
f 32/32/3 27/29/3 25/22/3
f 26/34/6 31/24/6 24/8/6
f 35/36/6 43/35/6 14/23/6
f 51/49/8 116/43/8 39/45/8
f 28/33/6 50/50/6 35/36/6
f 43/35/7 20/23/7 14/23/7
f 45/35/1 62/21/1 61/21/1
f 41/35/6 61/21/6 59/21/6
f 16/26/6 47/51/6 28/33/6
f 53/18/6 40/27/6 52/52/6
f 6/23/6 37/53/6 10/46/6
f 42/28/4 16/26/4 5/26/4
f 37/54/4 110/55/4 10/56/4
f 58/57/9 114/4/9 63/58/9
f 40/3/1 111/59/1 52/60/1
f 52/60/1 108/61/1 11/13/1
f 3/62/10 63/58/10 23/63/10
f 1/16/6 52/52/6 11/13/6
f 59/21/6 17/19/6 2/19/6
f 61/21/1 19/19/1 17/19/1
f 23/63/10 64/64/10 30/65/10
f 4/66/8 64/64/8 51/49/8
f 50/50/6 60/21/6 43/35/6
f 47/51/6 56/37/6 50/50/6
f 60/21/7 46/35/7 43/35/7
f 44/28/6 55/30/6 47/51/6
f 59/21/6 37/53/6 41/35/6
f 53/18/4 44/28/4 42/28/4
f 57/12/4 112/67/4 37/54/4
f 67/68/3 72/68/3 66/68/3
f 48/69/1 69/70/1 113/71/1
f 115/72/11 67/68/11 49/68/11
f 115/72/5 69/70/5 70/73/5
f 49/68/3 68/69/3 48/69/3
f 71/72/5 100/73/5 74/73/5
f 70/73/6 73/68/6 67/68/6
f 65/72/5 74/73/5 70/73/5
f 66/68/7 71/72/7 65/72/7
f 87/69/12 77/74/12 75/71/12
f 96/75/13 78/76/13 77/74/13
f 95/77/14 79/78/14 78/76/14
f 94/79/15 80/80/15 79/78/15
f 93/81/16 81/82/16 80/80/16
f 92/83/17 82/84/17 81/82/17
f 91/85/18 83/86/18 82/84/18
f 90/87/19 84/88/19 83/86/19
f 89/89/20 85/90/20 84/88/20
f 88/91/21 76/92/21 85/90/21
f 68/69/1 75/71/1 69/70/1
f 76/92/7 66/68/7 65/72/7
f 79/78/5 81/82/5 85/90/5
f 87/69/3 86/93/3 91/85/3
f 100/73/4 98/68/4 99/68/4
f 72/68/7 97/72/7 71/72/7
f 74/73/6 99/68/6 73/68/6
f 73/68/3 98/68/3 72/68/3
f 7/5/7 101/94/7 22/6/7
f 4/66/7 103/40/7 30/65/7
f 7/5/7 105/95/7 102/96/7
f 4/66/7 106/97/7 104/48/7
f 22/6/7 107/98/7 36/42/7
f 3/62/7 109/14/7 108/61/7
f 30/65/7 109/14/7 23/63/7
f 8/44/7 107/98/7 110/99/7
f 58/57/7 105/95/7 38/100/7
f 8/44/7 112/101/7 39/45/7
f 63/58/7 48/69/7 113/71/7
f 116/43/7 115/72/7 49/68/7
f 116/43/7 48/69/7 114/4/7
f 39/45/7 106/97/7 51/49/7
f 3/62/7 111/102/7 58/57/7
f 63/58/7 115/72/7 64/64/7
f 12/1/1 102/103/1 105/2/1
f 114/4/9 38/100/9 7/5/9
f 102/7/3 12/38/3 24/8/3
f 9/10/4 104/48/4 106/11/4
f 11/13/5 108/61/5 109/14/5
f 1/16/4 15/16/4 54/17/4
f 2/19/6 9/10/6 57/20/6
f 1/16/6 11/13/6 21/15/6
f 6/23/6 10/46/6 31/24/6
f 5/26/6 12/38/6 40/27/6
f 54/17/6 15/16/6 27/29/6
f 2/19/3 13/19/3 34/31/3
f 5/26/5 16/26/5 28/33/5
f 6/23/6 18/23/6 45/35/6
f 18/23/1 20/23/1 46/35/1
f 2/19/5 17/19/5 19/19/5
f 13/19/7 19/19/7 62/21/7
f 14/23/3 20/23/3 18/23/3
f 26/34/5 28/33/5 35/36/5
f 25/22/3 27/29/3 15/16/3
f 55/30/6 27/29/6 34/31/6
f 5/26/6 26/34/6 24/8/6
f 25/22/6 21/15/6 29/39/6
f 21/15/5 109/14/5 103/40/5
f 101/9/3 24/8/3 31/24/3
f 114/4/2 22/6/2 36/42/2
f 116/43/2 36/42/2 8/44/2
f 107/41/3 31/24/3 10/46/3
f 29/39/5 103/40/5 104/48/5
f 2/19/6 32/32/6 29/39/6
f 56/37/6 34/31/6 13/19/6
f 33/25/5 35/36/5 14/23/5
f 32/32/3 34/31/3 27/29/3
f 26/34/6 33/25/6 31/24/6
f 35/36/6 50/50/6 43/35/6
f 51/49/8 64/64/8 116/43/8
f 28/33/6 47/51/6 50/50/6
f 43/35/7 46/35/7 20/23/7
f 45/35/1 46/35/1 62/21/1
f 41/35/6 45/35/6 61/21/6
f 16/26/6 44/28/6 47/51/6
f 53/18/6 42/28/6 40/27/6
f 6/23/6 41/35/6 37/53/6
f 42/28/4 44/28/4 16/26/4
f 37/54/4 112/67/4 110/55/4
f 58/57/9 38/100/9 114/4/9
f 40/3/1 105/2/1 111/59/1
f 52/60/1 111/59/1 108/61/1
f 3/62/9 58/57/9 63/58/9
f 1/16/6 53/18/6 52/52/6
f 59/21/6 61/21/6 17/19/6
f 61/21/1 62/21/1 19/19/1
f 23/63/10 63/58/10 64/64/10
f 4/66/10 30/65/10 64/64/10
f 50/50/6 56/37/6 60/21/6
f 47/51/6 55/30/6 56/37/6
f 60/21/7 62/21/7 46/35/7
f 44/28/6 54/17/6 55/30/6
f 59/21/6 57/20/6 37/53/6
f 53/18/4 54/17/4 44/28/4
f 57/12/4 106/11/4 112/67/4
f 67/68/3 73/68/3 72/68/3
f 48/69/1 68/69/1 69/70/1
f 115/72/11 70/73/11 67/68/11
f 115/72/5 113/71/5 69/70/5
f 49/68/3 67/68/3 68/69/3
f 71/72/5 97/72/5 100/73/5
f 70/73/6 74/73/6 73/68/6
f 65/72/5 71/72/5 74/73/5
f 66/68/7 72/68/7 71/72/7
f 87/69/12 96/75/12 77/74/12
f 96/75/13 95/77/13 78/76/13
f 95/77/14 94/79/14 79/78/14
f 94/79/15 93/81/15 80/80/15
f 93/81/16 92/83/16 81/82/16
f 92/83/17 91/85/17 82/84/17
f 91/85/18 90/87/18 83/86/18
f 90/87/19 89/89/19 84/88/19
f 89/89/20 88/91/20 85/90/20
f 88/91/21 86/93/21 76/92/21
f 68/69/1 87/69/1 75/71/1
f 76/92/7 86/93/7 66/68/7
f 65/72/5 70/73/5 76/92/5
f 70/73/5 69/70/5 76/92/5
f 76/92/5 69/70/5 75/71/5
f 75/71/5 77/74/5 85/90/5
f 77/74/5 78/76/5 79/78/5
f 79/78/5 80/80/5 81/82/5
f 81/82/5 82/84/5 85/90/5
f 82/84/5 83/86/5 85/90/5
f 83/86/5 84/88/5 85/90/5
f 85/90/5 76/92/5 75/71/5
f 77/74/5 79/78/5 85/90/5
f 87/69/3 68/69/3 86/93/3
f 68/69/3 67/68/3 86/93/3
f 67/68/3 66/68/3 86/93/3
f 86/93/3 88/91/3 89/89/3
f 89/89/3 90/87/3 91/85/3
f 91/85/3 92/83/3 93/81/3
f 93/81/3 94/79/3 91/85/3
f 94/79/3 95/77/3 91/85/3
f 95/77/3 96/75/3 87/69/3
f 86/93/3 89/89/3 91/85/3
f 95/77/3 87/69/3 91/85/3
f 100/73/4 97/72/4 98/68/4
f 72/68/7 98/68/7 97/72/7
f 74/73/6 100/73/6 99/68/6
f 73/68/3 99/68/3 98/68/3
f 7/5/7 102/96/7 101/94/7
f 4/66/7 104/48/7 103/40/7
f 7/5/7 38/100/7 105/95/7
f 4/66/7 51/49/7 106/97/7
f 22/6/7 101/94/7 107/98/7
f 3/62/7 23/63/7 109/14/7
f 30/65/7 103/40/7 109/14/7
f 8/44/7 36/42/7 107/98/7
f 58/57/7 111/102/7 105/95/7
f 8/44/7 110/99/7 112/101/7
f 63/58/7 114/4/7 48/69/7
f 116/43/7 64/64/7 115/72/7
f 116/43/7 49/68/7 48/69/7
f 39/45/7 112/101/7 106/97/7
f 3/62/7 108/61/7 111/102/7
f 63/58/7 113/71/7 115/72/7
o Cube.001
v 0.831949 -0.324913 -1.742126
v 0.831949 -0.273867 -1.742126
v 0.831915 -0.324913 -1.412473
v 0.831915 -0.187693 -1.412473
v -0.008265 -0.324913 -1.745145
v -0.008265 -0.273867 -1.745145
v -0.008299 -0.324913 -1.412561
v -0.008299 -0.187693 -1.412561
v 0.129007 -0.324913 -1.301281
v 0.692450 -0.324913 -1.301222
v 0.692450 -0.187693 -1.301222
v 0.129007 -0.187693 -1.301281
v 0.692530 -0.324913 -2.061312
v 0.129087 -0.324913 -2.061372
v 0.129087 -0.273867 -2.061372
v 0.692530 -0.273867 -2.061312
vn 1.0000 -0.0000 0.0001
vn -0.6296 -0.0000 0.7769
vn -1.0000 -0.0000 -0.0001
vn 0.9164 -0.0000 -0.4003
vn -0.0000 -1.0000 -0.0000
vn 0.2497 0.9622 -0.1091
vn 0.1992 0.9486 -0.2458
vn -0.0000 0.9936 -0.1127
vn -0.9172 -0.0000 -0.3984
vn 0.0001 -0.0000 -1.0000
vn 0.6236 -0.0000 0.7817
vn -0.0001 -0.0000 1.0000
vn -0.1978 0.9484 -0.2479
vn -0.2511 0.9618 -0.1091
vt 0.625000 0.000000
vt 0.375000 0.250000
vt 0.375000 0.000000
vt 0.625000 0.417398
vt 0.375000 0.500000
vt 0.375000 0.417398
vt 0.625000 0.750000
vt 0.375000 0.750000
vt 0.625000 0.915936
vt 0.375000 1.000000
vt 0.375000 0.915936
vt 0.292398 0.500000
vt 0.292398 0.750000
vt 0.790936 0.500000
vt 0.875000 0.750000
vt 0.790936 0.750000
vt 0.707602 0.500000
vt 0.625000 0.500000
vt 0.707602 0.750000
vt 0.209064 0.500000
vt 0.125000 0.750000
vt 0.125000 0.500000
vt 0.209064 0.750000
vt 0.375000 0.832602
vt 0.625000 0.832602
vt 0.625000 0.250000
vt 0.375000 0.334064
vt 0.625000 0.334064
vt 0.625000 1.000000
vt 0.875000 0.500000
s 0
f 118/104/22 119/105/22 117/106/22
f 128/107/23 123/108/23 125/109/23
f 123/108/24 122/110/24 121/111/24
f 132/112/25 117/113/25 129/114/25
f 125/115/26 121/111/26 130/116/26
f 127/117/27 118/118/27 132/119/27
f 128/120/28 122/110/28 124/121/28
f 127/117/29 131/122/29 128/120/29
f 126/123/26 117/124/26 119/125/26
f 125/115/26 129/126/26 126/123/26
f 122/110/30 130/127/30 121/111/30
f 131/128/31 129/114/31 130/127/31
f 120/129/32 126/130/32 119/105/32
f 127/131/33 125/109/33 126/130/33
f 118/104/22 120/129/22 119/105/22
f 128/107/23 124/121/23 123/108/23
f 123/108/24 124/121/24 122/110/24
f 132/112/25 118/132/25 117/113/25
f 125/115/26 123/108/26 121/111/26
f 127/117/34 120/133/34 118/118/34
f 128/120/35 131/122/35 122/110/35
f 127/117/29 132/119/29 131/122/29
f 126/123/26 129/126/26 117/124/26
f 125/115/26 130/116/26 129/126/26
f 122/110/30 131/128/30 130/127/30
f 131/128/31 132/112/31 129/114/31
f 120/129/32 127/131/32 126/130/32
f 127/131/33 128/107/33 125/109/33
